<mxfile host="app.diagrams.net" agent="Mozilla/5.0 (Windows NT 10.0; Win64; x64) AppleWebKit/537.36 (KHTML, like Gecko) Chrome/137.0.0.0 Safari/537.36" version="27.1.6">
  <diagram name="Page-1" id="iinBCJ3MAkOq9ZU2wRMK">
    <mxGraphModel dx="827" dy="913" grid="1" gridSize="10" guides="1" tooltips="1" connect="1" arrows="1" fold="1" page="1" pageScale="1" pageWidth="850" pageHeight="1100" math="0" shadow="0">
      <root>
        <mxCell id="0" />
        <mxCell id="1" parent="0" />
        <mxCell id="CDPl57b82irT9h0Gmy88-29" value="" style="rounded=0;whiteSpace=wrap;html=1;" vertex="1" parent="1">
          <mxGeometry x="760" y="220" width="440" height="380" as="geometry" />
        </mxCell>
        <mxCell id="CDPl57b82irT9h0Gmy88-27" value="" style="rounded=0;whiteSpace=wrap;html=1;" vertex="1" parent="1">
          <mxGeometry x="120" y="40" width="600" height="560" as="geometry" />
        </mxCell>
        <mxCell id="CDPl57b82irT9h0Gmy88-25" style="edgeStyle=orthogonalEdgeStyle;rounded=0;orthogonalLoop=1;jettySize=auto;html=1;entryX=0.5;entryY=0;entryDx=0;entryDy=0;" edge="1" parent="1" source="CDPl57b82irT9h0Gmy88-1" target="CDPl57b82irT9h0Gmy88-2">
          <mxGeometry relative="1" as="geometry" />
        </mxCell>
        <mxCell id="CDPl57b82irT9h0Gmy88-26" value="Input Mode" style="edgeLabel;html=1;align=center;verticalAlign=middle;resizable=0;points=[];" vertex="1" connectable="0" parent="CDPl57b82irT9h0Gmy88-25">
          <mxGeometry x="-0.02" y="-6" relative="1" as="geometry">
            <mxPoint as="offset" />
          </mxGeometry>
        </mxCell>
        <mxCell id="CDPl57b82irT9h0Gmy88-1" value="Switch Mode" style="rounded=1;whiteSpace=wrap;html=1;" vertex="1" parent="1">
          <mxGeometry x="320" y="120" width="120" height="40" as="geometry" />
        </mxCell>
        <mxCell id="CDPl57b82irT9h0Gmy88-11" style="edgeStyle=orthogonalEdgeStyle;rounded=0;orthogonalLoop=1;jettySize=auto;html=1;exitX=0;exitY=0.5;exitDx=0;exitDy=0;" edge="1" parent="1" source="CDPl57b82irT9h0Gmy88-2" target="CDPl57b82irT9h0Gmy88-7">
          <mxGeometry relative="1" as="geometry" />
        </mxCell>
        <mxCell id="CDPl57b82irT9h0Gmy88-12" value="On/Off" style="edgeLabel;html=1;align=center;verticalAlign=middle;resizable=0;points=[];" vertex="1" connectable="0" parent="CDPl57b82irT9h0Gmy88-11">
          <mxGeometry x="-0.0667" y="1" relative="1" as="geometry">
            <mxPoint as="offset" />
          </mxGeometry>
        </mxCell>
        <mxCell id="CDPl57b82irT9h0Gmy88-16" style="edgeStyle=orthogonalEdgeStyle;rounded=0;orthogonalLoop=1;jettySize=auto;html=1;exitX=1;exitY=0.25;exitDx=0;exitDy=0;entryX=0;entryY=0.25;entryDx=0;entryDy=0;" edge="1" parent="1" source="CDPl57b82irT9h0Gmy88-2" target="CDPl57b82irT9h0Gmy88-3">
          <mxGeometry relative="1" as="geometry" />
        </mxCell>
        <mxCell id="CDPl57b82irT9h0Gmy88-2" value="PLC" style="rounded=1;whiteSpace=wrap;html=1;" vertex="1" parent="1">
          <mxGeometry x="320" y="255" width="120" height="105" as="geometry" />
        </mxCell>
        <mxCell id="CDPl57b82irT9h0Gmy88-17" style="edgeStyle=orthogonalEdgeStyle;rounded=0;orthogonalLoop=1;jettySize=auto;html=1;exitX=0;exitY=0.75;exitDx=0;exitDy=0;entryX=1;entryY=0.75;entryDx=0;entryDy=0;" edge="1" parent="1" source="CDPl57b82irT9h0Gmy88-3" target="CDPl57b82irT9h0Gmy88-2">
          <mxGeometry relative="1" as="geometry" />
        </mxCell>
        <mxCell id="CDPl57b82irT9h0Gmy88-20" style="edgeStyle=orthogonalEdgeStyle;rounded=0;orthogonalLoop=1;jettySize=auto;html=1;exitX=0.25;exitY=1;exitDx=0;exitDy=0;entryX=0.25;entryY=0;entryDx=0;entryDy=0;" edge="1" parent="1" source="CDPl57b82irT9h0Gmy88-3" target="CDPl57b82irT9h0Gmy88-4">
          <mxGeometry relative="1" as="geometry" />
        </mxCell>
        <mxCell id="CDPl57b82irT9h0Gmy88-53" style="edgeStyle=orthogonalEdgeStyle;rounded=0;orthogonalLoop=1;jettySize=auto;html=1;exitX=1;exitY=0.25;exitDx=0;exitDy=0;entryX=0;entryY=0.25;entryDx=0;entryDy=0;" edge="1" parent="1" source="CDPl57b82irT9h0Gmy88-3" target="CDPl57b82irT9h0Gmy88-30">
          <mxGeometry relative="1" as="geometry" />
        </mxCell>
        <mxCell id="CDPl57b82irT9h0Gmy88-54" style="edgeStyle=orthogonalEdgeStyle;rounded=0;orthogonalLoop=1;jettySize=auto;html=1;exitX=1;exitY=0.75;exitDx=0;exitDy=0;entryX=0;entryY=0.75;entryDx=0;entryDy=0;" edge="1" parent="1" source="CDPl57b82irT9h0Gmy88-3" target="CDPl57b82irT9h0Gmy88-30">
          <mxGeometry relative="1" as="geometry" />
        </mxCell>
        <mxCell id="CDPl57b82irT9h0Gmy88-3" value="WAP" style="rounded=1;whiteSpace=wrap;html=1;" vertex="1" parent="1">
          <mxGeometry x="560" y="255" width="120" height="105" as="geometry" />
        </mxCell>
        <mxCell id="CDPl57b82irT9h0Gmy88-21" style="edgeStyle=orthogonalEdgeStyle;rounded=0;orthogonalLoop=1;jettySize=auto;html=1;exitX=0.75;exitY=0;exitDx=0;exitDy=0;entryX=0.75;entryY=1;entryDx=0;entryDy=0;" edge="1" parent="1" source="CDPl57b82irT9h0Gmy88-4" target="CDPl57b82irT9h0Gmy88-3">
          <mxGeometry relative="1" as="geometry" />
        </mxCell>
        <mxCell id="CDPl57b82irT9h0Gmy88-4" value="HMI" style="rounded=1;whiteSpace=wrap;html=1;" vertex="1" parent="1">
          <mxGeometry x="560" y="510" width="120" height="60" as="geometry" />
        </mxCell>
        <mxCell id="CDPl57b82irT9h0Gmy88-9" style="edgeStyle=orthogonalEdgeStyle;rounded=0;orthogonalLoop=1;jettySize=auto;html=1;entryX=0.5;entryY=1;entryDx=0;entryDy=0;" edge="1" parent="1" source="CDPl57b82irT9h0Gmy88-5" target="CDPl57b82irT9h0Gmy88-6">
          <mxGeometry relative="1" as="geometry" />
        </mxCell>
        <mxCell id="CDPl57b82irT9h0Gmy88-14" value="Hasil Pembacaan Suhu" style="edgeLabel;html=1;align=center;verticalAlign=middle;resizable=0;points=[];" vertex="1" connectable="0" parent="CDPl57b82irT9h0Gmy88-9">
          <mxGeometry x="-0.08" y="1" relative="1" as="geometry">
            <mxPoint as="offset" />
          </mxGeometry>
        </mxCell>
        <mxCell id="CDPl57b82irT9h0Gmy88-5" value="Sensor" style="rounded=1;whiteSpace=wrap;html=1;" vertex="1" parent="1">
          <mxGeometry x="320" y="530" width="120" height="40" as="geometry" />
        </mxCell>
        <mxCell id="CDPl57b82irT9h0Gmy88-10" style="edgeStyle=orthogonalEdgeStyle;rounded=0;orthogonalLoop=1;jettySize=auto;html=1;exitX=0.5;exitY=0;exitDx=0;exitDy=0;entryX=0.5;entryY=1;entryDx=0;entryDy=0;" edge="1" parent="1" source="CDPl57b82irT9h0Gmy88-6" target="CDPl57b82irT9h0Gmy88-2">
          <mxGeometry relative="1" as="geometry" />
        </mxCell>
        <mxCell id="CDPl57b82irT9h0Gmy88-15" value="RS485 Protocol" style="edgeLabel;html=1;align=center;verticalAlign=middle;resizable=0;points=[];" vertex="1" connectable="0" parent="CDPl57b82irT9h0Gmy88-10">
          <mxGeometry x="0.1" relative="1" as="geometry">
            <mxPoint as="offset" />
          </mxGeometry>
        </mxCell>
        <mxCell id="CDPl57b82irT9h0Gmy88-6" value="Modbus" style="rounded=1;whiteSpace=wrap;html=1;" vertex="1" parent="1">
          <mxGeometry x="320" y="420" width="120" height="40" as="geometry" />
        </mxCell>
        <mxCell id="CDPl57b82irT9h0Gmy88-8" style="edgeStyle=orthogonalEdgeStyle;rounded=0;orthogonalLoop=1;jettySize=auto;html=1;entryX=0;entryY=0.5;entryDx=0;entryDy=0;" edge="1" parent="1" source="CDPl57b82irT9h0Gmy88-7" target="CDPl57b82irT9h0Gmy88-5">
          <mxGeometry relative="1" as="geometry">
            <Array as="points">
              <mxPoint x="200" y="550" />
            </Array>
          </mxGeometry>
        </mxCell>
        <mxCell id="CDPl57b82irT9h0Gmy88-13" value="Membaca&lt;div&gt;Suhu&lt;/div&gt;" style="edgeLabel;html=1;align=center;verticalAlign=middle;resizable=0;points=[];" vertex="1" connectable="0" parent="CDPl57b82irT9h0Gmy88-8">
          <mxGeometry x="-0.0028" relative="1" as="geometry">
            <mxPoint as="offset" />
          </mxGeometry>
        </mxCell>
        <mxCell id="CDPl57b82irT9h0Gmy88-7" value="Hotpan" style="rounded=1;whiteSpace=wrap;html=1;" vertex="1" parent="1">
          <mxGeometry x="140" y="287.5" width="120" height="40" as="geometry" />
        </mxCell>
        <mxCell id="CDPl57b82irT9h0Gmy88-18" value="Transfer Data&lt;div&gt;(FINS)&lt;/div&gt;" style="text;html=1;align=center;verticalAlign=middle;resizable=0;points=[];autosize=1;strokeColor=none;fillColor=none;" vertex="1" parent="1">
          <mxGeometry x="457" y="285" width="100" height="40" as="geometry" />
        </mxCell>
        <mxCell id="CDPl57b82irT9h0Gmy88-19" value="Transfer&amp;nbsp;&lt;div&gt;Data&lt;div&gt;(FINS)&lt;/div&gt;&lt;/div&gt;" style="text;html=1;align=center;verticalAlign=middle;resizable=0;points=[];autosize=1;strokeColor=none;fillColor=none;" vertex="1" parent="1">
          <mxGeometry x="585" y="410" width="70" height="60" as="geometry" />
        </mxCell>
        <mxCell id="CDPl57b82irT9h0Gmy88-28" value="Hardware" style="text;html=1;align=center;verticalAlign=middle;whiteSpace=wrap;rounded=0;fontStyle=1" vertex="1" parent="1">
          <mxGeometry x="605" y="70" width="60" height="30" as="geometry" />
        </mxCell>
        <mxCell id="CDPl57b82irT9h0Gmy88-42" style="edgeStyle=orthogonalEdgeStyle;rounded=0;orthogonalLoop=1;jettySize=auto;html=1;exitX=1;exitY=0.25;exitDx=0;exitDy=0;entryX=0;entryY=0.25;entryDx=0;entryDy=0;" edge="1" parent="1" source="CDPl57b82irT9h0Gmy88-30" target="CDPl57b82irT9h0Gmy88-31">
          <mxGeometry relative="1" as="geometry" />
        </mxCell>
        <mxCell id="CDPl57b82irT9h0Gmy88-30" value="MQTT Broker" style="rounded=1;whiteSpace=wrap;html=1;" vertex="1" parent="1">
          <mxGeometry x="790" y="255" width="70" height="105" as="geometry" />
        </mxCell>
        <mxCell id="CDPl57b82irT9h0Gmy88-38" style="edgeStyle=orthogonalEdgeStyle;rounded=0;orthogonalLoop=1;jettySize=auto;html=1;exitX=1;exitY=0.75;exitDx=0;exitDy=0;entryX=0.25;entryY=0;entryDx=0;entryDy=0;" edge="1" parent="1" source="CDPl57b82irT9h0Gmy88-31" target="CDPl57b82irT9h0Gmy88-34">
          <mxGeometry relative="1" as="geometry">
            <Array as="points">
              <mxPoint x="1090" y="334" />
            </Array>
          </mxGeometry>
        </mxCell>
        <mxCell id="CDPl57b82irT9h0Gmy88-47" value="Post" style="edgeLabel;html=1;align=center;verticalAlign=middle;resizable=0;points=[];" vertex="1" connectable="0" parent="CDPl57b82irT9h0Gmy88-38">
          <mxGeometry x="0.2719" y="2" relative="1" as="geometry">
            <mxPoint x="-2" y="-23" as="offset" />
          </mxGeometry>
        </mxCell>
        <mxCell id="CDPl57b82irT9h0Gmy88-40" style="edgeStyle=orthogonalEdgeStyle;rounded=0;orthogonalLoop=1;jettySize=auto;html=1;exitX=0.75;exitY=1;exitDx=0;exitDy=0;entryX=0.75;entryY=0;entryDx=0;entryDy=0;" edge="1" parent="1" source="CDPl57b82irT9h0Gmy88-31" target="CDPl57b82irT9h0Gmy88-32">
          <mxGeometry relative="1" as="geometry" />
        </mxCell>
        <mxCell id="CDPl57b82irT9h0Gmy88-50" value="Upload&lt;div&gt;Data&lt;/div&gt;" style="edgeLabel;html=1;align=center;verticalAlign=middle;resizable=0;points=[];" vertex="1" connectable="0" parent="CDPl57b82irT9h0Gmy88-40">
          <mxGeometry x="0.0308" y="3" relative="1" as="geometry">
            <mxPoint y="13" as="offset" />
          </mxGeometry>
        </mxCell>
        <mxCell id="CDPl57b82irT9h0Gmy88-43" style="edgeStyle=orthogonalEdgeStyle;rounded=0;orthogonalLoop=1;jettySize=auto;html=1;exitX=0;exitY=0.75;exitDx=0;exitDy=0;entryX=1;entryY=0.75;entryDx=0;entryDy=0;" edge="1" parent="1" source="CDPl57b82irT9h0Gmy88-31" target="CDPl57b82irT9h0Gmy88-30">
          <mxGeometry relative="1" as="geometry" />
        </mxCell>
        <mxCell id="CDPl57b82irT9h0Gmy88-31" value="Nodered" style="rounded=1;whiteSpace=wrap;html=1;" vertex="1" parent="1">
          <mxGeometry x="940" y="255" width="95" height="105" as="geometry" />
        </mxCell>
        <mxCell id="CDPl57b82irT9h0Gmy88-41" style="edgeStyle=orthogonalEdgeStyle;rounded=0;orthogonalLoop=1;jettySize=auto;html=1;exitX=0.25;exitY=0;exitDx=0;exitDy=0;entryX=0.25;entryY=1;entryDx=0;entryDy=0;" edge="1" parent="1" source="CDPl57b82irT9h0Gmy88-32" target="CDPl57b82irT9h0Gmy88-31">
          <mxGeometry relative="1" as="geometry" />
        </mxCell>
        <mxCell id="CDPl57b82irT9h0Gmy88-49" value="Download&lt;div&gt;Data&lt;/div&gt;" style="edgeLabel;html=1;align=center;verticalAlign=middle;resizable=0;points=[];" vertex="1" connectable="0" parent="CDPl57b82irT9h0Gmy88-41">
          <mxGeometry x="0.0235" y="4" relative="1" as="geometry">
            <mxPoint y="17" as="offset" />
          </mxGeometry>
        </mxCell>
        <mxCell id="CDPl57b82irT9h0Gmy88-32" value="Mariadb" style="rounded=1;whiteSpace=wrap;html=1;" vertex="1" parent="1">
          <mxGeometry x="940" y="490" width="95" height="60" as="geometry" />
        </mxCell>
        <mxCell id="CDPl57b82irT9h0Gmy88-36" style="edgeStyle=orthogonalEdgeStyle;rounded=0;orthogonalLoop=1;jettySize=auto;html=1;exitX=0.75;exitY=0;exitDx=0;exitDy=0;entryX=1;entryY=0.25;entryDx=0;entryDy=0;" edge="1" parent="1" source="CDPl57b82irT9h0Gmy88-34" target="CDPl57b82irT9h0Gmy88-31">
          <mxGeometry relative="1" as="geometry" />
        </mxCell>
        <mxCell id="CDPl57b82irT9h0Gmy88-48" value="Get" style="edgeLabel;html=1;align=center;verticalAlign=middle;resizable=0;points=[];" vertex="1" connectable="0" parent="CDPl57b82irT9h0Gmy88-36">
          <mxGeometry x="-0.339" y="-1" relative="1" as="geometry">
            <mxPoint y="7" as="offset" />
          </mxGeometry>
        </mxCell>
        <mxCell id="CDPl57b82irT9h0Gmy88-34" value="Flask Python" style="rounded=1;whiteSpace=wrap;html=1;" vertex="1" parent="1">
          <mxGeometry x="1060" y="490" width="120" height="60" as="geometry" />
        </mxCell>
        <mxCell id="CDPl57b82irT9h0Gmy88-44" value="Software" style="text;html=1;align=center;verticalAlign=middle;whiteSpace=wrap;rounded=0;fontStyle=1" vertex="1" parent="1">
          <mxGeometry x="780" y="520" width="60" height="30" as="geometry" />
        </mxCell>
        <mxCell id="CDPl57b82irT9h0Gmy88-55" value="Transfer&amp;nbsp;&lt;span style=&quot;background-color: transparent; color: light-dark(rgb(0, 0, 0), rgb(255, 255, 255));&quot;&gt;Data&lt;/span&gt;&lt;div&gt;&lt;div&gt;(FINS)&lt;/div&gt;&lt;/div&gt;" style="text;html=1;align=center;verticalAlign=middle;resizable=0;points=[];autosize=1;strokeColor=none;fillColor=#FFFFFF;" vertex="1" parent="1">
          <mxGeometry x="680" y="287.5" width="100" height="40" as="geometry" />
        </mxCell>
        <mxCell id="CDPl57b82irT9h0Gmy88-56" value="Transfer&amp;nbsp;&lt;div&gt;Data&lt;/div&gt;" style="text;html=1;align=center;verticalAlign=middle;resizable=0;points=[];autosize=1;strokeColor=none;fillColor=#FFFFFF;" vertex="1" parent="1">
          <mxGeometry x="864" y="285" width="70" height="40" as="geometry" />
        </mxCell>
        <mxCell id="CDPl57b82irT9h0Gmy88-57" value="API" style="text;html=1;align=center;verticalAlign=middle;resizable=0;points=[];autosize=1;strokeColor=none;fillColor=#FFFFFF;" vertex="1" parent="1">
          <mxGeometry x="1090" y="295" width="40" height="30" as="geometry" />
        </mxCell>
        <mxCell id="CDPl57b82irT9h0Gmy88-61" value="Docker" style="text;html=1;align=center;verticalAlign=middle;whiteSpace=wrap;rounded=0;fontStyle=1" vertex="1" parent="1">
          <mxGeometry x="1130" y="250" width="60" height="30" as="geometry" />
        </mxCell>
        <mxCell id="CDPl57b82irT9h0Gmy88-64" value="" style="rounded=0;whiteSpace=wrap;html=1;fillColor=none;" vertex="1" parent="1">
          <mxGeometry x="920" y="250" width="270" height="310" as="geometry" />
        </mxCell>
      </root>
    </mxGraphModel>
  </diagram>
</mxfile>
